<?xml version="1.0" encoding="utf-8"?>
<svg viewBox="92.599 21.513 286.118 343.173" xmlns="http://www.w3.org/2000/svg">
  <path style="stroke: rgb(0, 0, 0); fill: rgb(59, 12, 12);" d="M 168.514 284.886 L 162.066 259.095 L 152.717 251.68 L 138.21 236.528 L 138.533 214.283 L 145.626 208.481 L 159.487 215.251 L 162.712 202.677 L 163.034 183.98 C 190.422 183.98 171.416 143.682 171.416 143.682 L 171.416 132.721 L 191.726 140.78 L 222.353 157.867 L 276.19 143.037 L 287.474 143.359 L 295.856 144.648 L 303.593 154.32 L 304.238 166.893 L 301.981 187.848 L 305.205 206.547 L 310.685 215.251 L 312.62 226.857 L 319.39 227.824 L 327.772 228.469 L 323.904 238.462 L 321.646 248.456 L 312.62 255.226 L 308.429 254.582 C 308.251 254.527 289.436 272.533 312.62 279.728 L 321.324 285.208 L 334.542 282.307 L 342.602 271.99 L 343.246 263.931 L 345.825 261.351 L 346.793 257.161 L 354.53 253.937 L 357.754 249.101 L 356.786 242.976 L 354.852 235.561 L 357.431 223.955 L 367.425 208.803 L 369.36 199.776 L 374.518 189.783 L 373.228 179.144 L 376.13 166.248 L 374.518 157.866 L 368.392 153.998 L 366.136 144.971 L 361.3 138.201 L 357.754 126.918 L 351.951 121.437 L 349.049 109.509 L 348.727 93.067 L 341.957 77.593 L 332.93 71.145 L 321.002 65.02 L 316.811 51.803 L 306.817 37.617 L 293.599 31.17 L 277.803 24.722 L 258.46 23.11 L 245.241 26.334 L 221.386 26.978 L 195.595 24.077 L 183.344 30.203 L 177.864 41.486 L 170.771 52.447 L 155.619 54.381 L 146.592 56.638 L 137.243 59.539 L 131.118 66.31 L 126.927 84.041 L 124.67 96.936 L 112.42 109.187 L 108.229 119.503 L 111.453 136.589 L 114.676 152.386 L 104.36 162.38 L 96.623 177.854 L 98.88 194.618 L 104.36 207.836 L 101.136 224.6 L 103.393 239.43 L 114.676 253.614 L 124.348 267.799 L 138.21 276.826 L 168.514 284.886 Z"/>
  <path style="stroke: rgb(0, 0, 0); fill: rgb(188, 147, 143);" d="M 171.486 130.356 L 192.736 139.347 L 216.847 140.981 L 233.601 138.121 L 258.121 135.26 L 286.726 132.808 L 299.803 135.26 L 306.75 144.659 L 310.428 148.337 L 309.611 169.179 L 308.794 188.385 L 308.794 205.549 L 314.106 217.808 L 322.107 215.852 L 330.108 214.131 L 334.367 222.816 L 333.657 233.591 L 332.518 246.523 L 328.087 256.245 L 321.054 259.859 L 312.512 264.953 L 310.02 283.193 L 300.212 307.712 L 278.554 337.544 L 247.904 361.654 L 219.299 360.837 L 199.683 349.395 L 165.765 305.26 L 155.14 263.169 L 144.106 259.082 L 140.429 246.414 L 135.116 231.703 L 133.073 210.453 L 136.342 203.914 L 144.515 204.323 L 150.645 207.592 L 154.323 211.678 L 160.453 182.255 L 159.635 164.683 L 159.227 150.38 L 159.635 137.712 L 171.486 130.356 Z"/>
  <path style="fill: rgb(216, 216, 216); stroke: rgb(0, 0, 0);" d="M 74.387 70.294"/>
  <path style="stroke: rgb(0, 0, 0);" d="M 241.252 209.233 L 265.16 207.146 L 297.463 206.879 L 306.453 208.105 L 318.304 205.245 L 322.391 213.826 L 308.905 218.73 L 302.412 241.092 L 299.34 238.976 L 305.683 219.127 L 300.732 211.374 L 277.848 209.74 L 245.926 213.113 C 245.636 212.499 242.984 216.225 243.765 217.881 L 250.489 235.87 C 249.823 237.111 264.21 243.398 264.876 242.157 C 268.056 242.746 284.639 242.294 284.408 242.194 L 299.512 239.122 L 302.385 241.2 L 292.566 245.286 L 264.794 246.507 C 265.545 247.672 248.502 240.39 246.902 237.909 C 246.02 237.629 240.113 220.637 240.637 220.804 C 241.791 220.872 237.912 218.012 234.802 217.829 C 234.996 217.386 229.134 218.804 228.808 219.548 L 221.062 241.194 L 209.601 244.067 L 186.744 245.269 C 186.389 245.898 167.511 240.237 167.722 239.863 C 167.821 242.734 159.782 219.795 159.745 218.73 L 148.674 210.372 C 149.266 206.489 152.059 202.936 151.92 203.373 L 156.884 208.105 L 164.275 210.12 L 166.904 233.998 C 172.539 241.859 185.154 242.988 184.702 242.357 C 187.435 243.184 223.359 238.37 218.762 236.979 C 218.77 237.511 227.371 216.52 225.46 215.672 C 223.954 212.237 217.498 211.439 217.416 211.518 L 209.828 209.987 C 215.495 209.081 164.415 206.472 165.316 215.429 L 163.275 209.607 L 190.66 204.889 L 241.267 209.249" transform="matrix(0.9999, 0.014173, -0.014173, 0.9999, 3.218813, -3.306968)"/>
</svg>